<?xml version="1.0" standalone="no"?>
<!DOCTYPE svg PUBLIC "-//W3C//DTD SVG 20010904//EN"
 "http://www.w3.org/TR/2001/REC-SVG-20010904/DTD/svg10.dtd">
<svg version="1.0" xmlns="http://www.w3.org/2000/svg"
 width="229.000000pt" height="39.000000pt" viewBox="0 0 229.000000 39.000000"
 preserveAspectRatio="xMidYMid meet">

<g transform="translate(0.000000,39.000000) scale(0.100000,-0.100000)"
fill="#000000" stroke="none">
<path d="M1008 290 l4 -60 -41 0 c-76 0 -118 -77 -75 -138 18 -26 75 -30 94
-7 11 14 14 13 25 -2 10 -14 17 -15 36 -6 13 7 18 12 12 12 -10 1 -13 34 -13
131 0 129 0 130 -23 130 -22 0 -23 -3 -19 -60z m-3 -130 l0 -55 -35 0 c-45 0
-66 35 -49 84 10 29 15 32 48 29 l36 -3 0 -55z"/>
<path d="M1550 304 c0 -10 7 -14 22 -12 32 5 35 28 4 28 -17 0 -26 -5 -26 -16z"/>
<path d="M106 303 c-3 -3 -24 -5 -48 -6 -24 0 -35 -2 -25 -4 15 -4 17 -18 17
-108 0 -89 -3 -106 -18 -114 -13 -8 -6 -10 33 -10 85 0 126 12 148 41 19 26
19 28 3 54 -10 14 -27 29 -38 31 -19 5 -19 6 2 25 22 20 27 63 9 74 -17 10
-77 22 -83 17z m52 -52 c4 -37 -9 -51 -45 -51 -21 0 -23 5 -23 46 0 45 0 45
33 42 28 -3 32 -7 35 -37z m10 -83 c6 -6 12 -25 12 -43 0 -36 -13 -45 -61 -45
-28 0 -29 1 -29 53 l0 54 33 -5 c17 -2 38 -9 45 -14z"/>
<path d="M1907 283 c-9 -11 -14 -23 -10 -26 3 -4 -2 -14 -13 -22 -16 -12 -16
-14 -3 -15 13 0 17 -12 17 -64 0 -36 3 -70 7 -75 10 -16 47 -13 73 7 l22 17
-32 0 -33 0 -3 58 -3 57 31 0 c16 0 30 5 30 11 0 6 -12 9 -27 7 -25 -3 -29 1
-33 31 -5 33 -5 33 -23 14z"/>
<path d="M288 158 c4 -60 2 -74 -14 -85 -16 -11 -11 -13 37 -12 30 1 46 3 37
6 -14 4 -18 15 -18 57 0 28 5 57 12 64 18 18 45 15 53 -5 7 -17 8 -16 15 2 5
11 9 26 9 32 1 17 -49 13 -70 -4 -14 -12 -17 -12 -22 2 -4 8 -15 15 -25 15
-16 0 -17 -8 -14 -72z"/>
<path d="M482 223 c-7 -2 -17 -13 -22 -24 -9 -15 -8 -18 7 -12 10 3 23 12 30
20 17 22 57 12 61 -14 3 -18 -4 -24 -37 -33 -22 -6 -47 -17 -56 -26 -34 -35
-4 -81 43 -63 26 10 29 17 5 15 -11 0 -19 7 -21 20 -3 23 11 38 46 48 21 7 22
4 22 -38 0 -50 12 -58 46 -30 19 15 19 15 -1 11 -18 -3 -20 1 -16 40 1 24 0
55 -3 68 -6 22 -12 25 -49 24 -23 0 -48 -3 -55 -6z"/>
<path d="M668 158 c4 -60 2 -74 -14 -85 -16 -11 -12 -13 32 -12 27 0 43 3 37
6 -8 3 -13 25 -13 58 0 58 14 79 52 73 20 -3 23 -9 26 -58 2 -40 -1 -57 -12
-66 -12 -8 -6 -11 31 -13 37 -1 45 1 35 11 -7 7 -12 38 -12 69 0 32 -3 64 -6
73 -8 20 -62 21 -91 1 -19 -13 -22 -13 -27 0 -3 8 -14 15 -24 15 -16 0 -17 -8
-14 -72z"/>
<path d="M1115 213 c4 -10 6 -53 6 -95 -1 -72 0 -78 19 -78 13 0 20 7 20 19 0
17 5 19 35 14 64 -10 108 56 81 121 -13 31 -19 36 -48 36 -19 0 -40 -6 -47
-12 -11 -10 -14 -10 -18 0 -3 6 -16 12 -30 12 -20 0 -24 -4 -18 -17z m121 -15
c12 -18 22 -98 12 -92 -4 3 -8 0 -8 -6 0 -7 -15 -10 -37 -8 -38 3 -38 3 -43
55 -4 42 -2 53 10 57 31 8 59 6 66 -6z"/>
<path d="M1346 205 c-55 -51 -20 -135 58 -135 77 0 116 89 61 140 -28 26 -42
22 -26 -8 12 -23 15 -81 5 -106 -9 -23 -61 -21 -74 3 -14 27 -13 96 3 109 6 5
21 12 32 15 16 4 15 5 -6 6 -15 1 -37 -9 -53 -24z"/>
<path d="M1540 220 c0 -5 3 -10 8 -10 13 0 5 -132 -9 -141 -9 -6 4 -9 36 -9
39 1 46 3 33 11 -15 8 -18 24 -18 84 0 73 -1 75 -25 75 -14 0 -25 -4 -25 -10z"/>
<path d="M1668 158 c4 -60 2 -74 -14 -85 -16 -11 -12 -13 32 -12 27 0 43 3 37
6 -17 6 -17 105 -1 121 7 7 25 12 40 12 28 0 28 -1 28 -64 0 -53 -3 -65 -17
-69 -10 -3 4 -5 32 -6 38 -1 46 2 37 11 -7 7 -12 38 -12 69 0 32 -3 64 -6 73
-8 20 -62 21 -91 1 -19 -13 -22 -13 -27 0 -3 8 -14 15 -24 15 -16 0 -17 -8
-14 -72z"/>
</g>
</svg>
